<?xml version="1.0" encoding="UTF-8"?>
<svg id="Camada_1" xmlns="http://www.w3.org/2000/svg" version="1.1" viewBox="0 0 2000 527.35">
  <!-- Generator: Adobe Illustrator 30.0.0, SVG Export Plug-In . SVG Version: 2.1.1 Build 123)  -->
  <defs>
    <style>
      .st0 {
        fill: #fff;
      }
    </style>
  </defs>
  <polygon class="st0" points="1190.396 525.26 1273.877 525.26 1504.648 2.09 1421.168 2.09 1190.396 525.26"/>
  <polygon class="st0" points="1292.004 294.911 1162.948 2.09 1079.467 2.09 1208.523 294.911 1292.004 294.911"/>
  <rect class="st0" x="2.956" y="2.09" width="76.583" height="523.171"/>
  <path class="st0" d="M995.415,2.09h-281.967c-36.594,0-66.259,29.665-66.259,66.259v159.896c0,36.494,29.51,66.118,66.004,66.259l262.433,1.01c5.227,0,9.466,4.238,9.466,9.466v134.233c0,5.227-4.238,9.466-9.466,9.466h-242.389c-5.228,0-9.466-4.238-9.466-9.466v-67.116h-76.583v86.906c0,36.594,29.665,66.259,66.259,66.259h281.967c36.594,0,66.259-29.665,66.259-66.259v-173.811c0-36.594-29.665-66.259-66.259-66.259h-262.178c-5.228,0-9.466-4.238-9.466-9.466v-121.329c0-5.227,4.238-9.466,9.466-9.466h242.389c5.227,0,9.466,4.238,9.466,9.466v67.085h76.583v-86.873c0-36.594-29.665-66.259-66.259-66.259Z"/>
  <polygon class="st0" points="494.023 486.352 280.414 2.09 156.121 2.09 156.121 525.26 232.703 525.26 232.703 83.181 427.705 525.26 570.606 525.26 570.606 2.09 494.023 2.09 494.023 486.352"/>
  <polygon class="st0" points="1997.044 2.09 1544.265 2.09 1510.485 78.672 1715.494 78.672 1715.494 525.26 1792.076 525.26 1792.076 78.672 1963.304 78.672 1997.044 2.09"/>
</svg>