<?xml version="1.0" encoding="UTF-8"?>
<svg id="Camada_1" xmlns="http://www.w3.org/2000/svg" version="1.1" viewBox="0 0 1080 834.723">
  <!-- Generator: Adobe Illustrator 30.0.0, SVG Export Plug-In . SVG Version: 2.1.1 Build 123)  -->
  <defs>
    <style>
      .st0 {
        fill: #fff;
      }
    </style>
  </defs>
  <polygon class="st0" points="721.674 145.921 721.674 144.015 721.674 3.725 581.385 3.725 581.385 144.015 581.385 226.847 721.674 145.921"/>
  <polygon class="st0" points="721.674 226.847 581.385 226.847 498.552 226.847 579.478 367.072 581.385 367.072 721.674 367.072 721.674 226.847"/>
  <polygon class="st0" points="500.458 3.725 498.552 3.725 358.327 3.725 358.327 144.015 498.552 144.015 581.385 144.015 500.458 3.725"/>
  <polygon class="st0" points="358.327 224.941 358.327 226.847 358.327 367.072 498.552 367.072 498.552 226.847 498.552 144.015 358.327 224.941"/>
  <polygon class="st0" points="641.859 830.999 686.519 830.999 809.978 551.112 765.317 551.112 641.859 830.999"/>
  <polygon class="st0" points="696.217 707.766 627.174 551.112 582.514 551.112 651.556 707.766 696.217 707.766"/>
  <rect class="st0" x="6.601" y="551.112" width="40.97" height="279.886"/>
  <path class="st0" d="M537.548,551.112h-150.847c-19.577,0-35.448,15.871-35.448,35.447v85.541c0,19.524,15.788,35.372,35.311,35.447l140.397.54c2.796,0,5.063,2.267,5.063,5.064v71.812c0,2.796-2.267,5.064-5.063,5.064h-129.674c-2.796,0-5.064-2.268-5.064-5.064v-35.906h-40.97v46.493c0,19.577,15.871,35.447,35.448,35.447h150.847c19.577,0,35.447-15.87,35.447-35.447v-92.985c0-19.577-15.87-35.447-35.447-35.447h-140.26c-2.796,0-5.064-2.267-5.064-5.064v-64.908c0-2.796,2.268-5.064,5.064-5.064h129.674c2.796,0,5.063,2.267,5.063,5.064v35.889h40.97v-46.476c0-19.577-15.87-35.447-35.447-35.447Z"/>
  <polygon class="st0" points="269.313 810.184 155.035 551.112 88.542 551.112 88.542 830.999 129.511 830.999 129.511 594.495 233.834 830.999 310.283 830.999 310.283 551.112 269.313 551.112 269.313 810.184"/>
  <polygon class="st0" points="831.172 551.112 813.1 592.083 922.776 592.083 922.776 830.999 963.746 830.999 963.746 592.083 1055.35 592.083 1073.399 551.112 831.172 551.112"/>
</svg>