<?xml version="1.0" encoding="UTF-8"?>
<svg id="Camada_1" xmlns="http://www.w3.org/2000/svg" version="1.1" viewBox="0 0 2000 383.383">
  <!-- Generator: Adobe Illustrator 30.0.0, SVG Export Plug-In . SVG Version: 2.1.1 Build 123)  -->
  <defs>
    <style>
      .st0 {
        fill: #fff;
      }
    </style>
  </defs>
  <polygon class="st0" points="233.544 378.877 235.508 378.877 380.055 378.877 380.055 234.396 235.508 234.396 150.161 234.396 233.544 378.877"/>
  <polygon class="st0" points="152.125 4.501 150.161 4.501 5.68 4.501 5.68 149.05 150.161 149.05 235.508 149.05 152.125 4.501"/>
  <polygon class="st0" points="235.508 149.05 235.508 234.396 380.055 151.014 380.055 149.05 380.055 4.501 235.508 4.501 235.508 149.05"/>
  <polygon class="st0" points="5.68 232.432 5.68 234.396 5.68 378.877 150.161 378.877 150.161 234.396 150.161 149.05 5.68 232.432"/>
  <polygon class="st0" points="1417.082 378.882 1476.821 378.882 1641.961 4.501 1582.223 4.501 1417.082 378.882"/>
  <polygon class="st0" points="1489.793 214.044 1397.44 4.501 1337.702 4.501 1430.054 214.044 1489.793 214.044"/>
  <rect class="st0" x="567.349" y="4.501" width="54.803" height="374.381"/>
  <path class="st0" d="M1277.553,4.501h-201.776c-26.187,0-47.415,21.229-47.415,47.415v114.421c0,26.115,21.117,47.314,47.232,47.415l187.798.723c3.741,0,6.774,3.033,6.774,6.774v96.057c0,3.741-3.033,6.774-6.774,6.774h-173.454c-3.741,0-6.774-3.033-6.774-6.774v-48.029h-54.802v62.19c0,26.186,21.228,47.415,47.415,47.415h201.776c26.186,0,47.415-21.229,47.415-47.415v-124.379c0-26.186-21.229-47.415-47.415-47.415h-187.615c-3.741,0-6.774-3.033-6.774-6.774v-86.823c0-3.741,3.032-6.774,6.774-6.774h173.454c3.741,0,6.774,3.033,6.774,6.774v48.006h54.802v-62.167c0-26.186-21.229-47.415-47.415-47.415Z"/>
  <polygon class="st0" points="918.758 351.04 765.898 4.501 676.955 4.501 676.955 378.882 731.757 378.882 731.757 62.53 871.3 378.882 973.56 378.882 973.56 4.501 918.758 4.501 918.758 351.04"/>
  <polygon class="st0" points="1670.311 4.501 1646.138 59.303 1792.842 59.303 1792.842 378.882 1847.644 378.882 1847.644 59.303 1970.176 59.303 1994.32 4.501 1670.311 4.501"/>
</svg>